<?xml version="1.0" standalone="no"?>
<!DOCTYPE svg PUBLIC "-//W3C//DTD SVG 20010904//EN"
 "http://www.w3.org/TR/2001/REC-SVG-20010904/DTD/svg10.dtd">
<svg version="1.0" xmlns="http://www.w3.org/2000/svg"
 width="512.000000pt" height="512.000000pt" viewBox="0 0 512.000000 512.000000"
 preserveAspectRatio="xMidYMid meet">

<g transform="translate(0.000000,512.000000) scale(0.100000,-0.100000)"
fill="#000000" stroke="none">
<path d="M3374 5101 c52 -57 51 -176 -3 -335 -17 -50 -29 -91 -28 -93 6 -5
340 47 399 62 106 27 163 66 198 135 49 95 186 207 295 239 20 6 -41 10 -180
10 -197 1 -216 -1 -305 -25 -52 -15 -113 -27 -135 -28 -34 -1 -41 3 -53 27
-13 27 -14 27 -109 27 -94 0 -96 0 -79 -19z m484 -197 c63 -8 66 -22 18 -70
-28 -28 -41 -34 -78 -34 -76 0 -117 67 -58 97 28 14 44 15 118 7z"/>
<path d="M4685 5106 c-27 -7 -79 -18 -115 -25 -88 -16 -197 -71 -266 -133 -31
-29 -52 -54 -47 -55 5 -2 58 12 118 32 129 41 199 46 239 14 18 -14 26 -30 26
-50 0 -26 -6 -32 -47 -50 -27 -12 -64 -23 -85 -26 -33 -5 -38 -3 -54 28 -13
27 -19 31 -26 19 -5 -8 -22 -37 -39 -65 -16 -27 -45 -70 -65 -94 -19 -24 -33
-45 -31 -48 3 -2 108 21 234 52 126 30 244 55 263 55 34 0 33 0 -26 -35 -56
-34 -110 -82 -101 -92 3 -2 45 3 93 12 49 8 151 21 227 27 l137 12 0 56 c0 44
-4 58 -20 68 -25 16 -25 48 0 90 15 24 20 50 20 98 l0 65 -47 -7 c-27 -4 -68
-13 -93 -20 -52 -16 -71 -5 -92 52 l-12 34 -71 -1 c-38 0 -92 -6 -120 -13z"/>
<path d="M2057 5074 c-4 -4 -37 -8 -74 -10 -220 -8 -420 -130 -561 -343 -31
-47 -69 -94 -85 -105 l-27 -20 -26 26 c-38 37 -42 99 -12 158 22 44 24 45 66
42 34 -2 42 1 42 15 0 31 56 136 90 171 18 17 28 32 22 32 -6 0 -57 -11 -114
-25 -57 -14 -196 -40 -310 -59 -114 -20 -252 -47 -305 -62 -123 -33 -295 -92
-308 -106 -13 -12 123 -2 217 18 36 7 103 16 147 20 70 6 84 4 101 -11 20 -18
20 -19 -11 -51 -18 -18 -45 -36 -61 -39 -37 -9 -88 3 -88 20 0 31 -33 21 -102
-31 -88 -65 -160 -101 -233 -116 -62 -12 -76 -7 -52 20 10 10 17 22 17 27 0 4
-35 5 -78 2 -82 -6 -192 -39 -263 -78 l-44 -24 -2 -100 -3 -100 21 45 c27 61
64 107 99 125 35 18 146 20 221 4 72 -15 155 0 341 62 186 62 330 99 388 99
52 0 133 -24 150 -45 26 -31 -48 -113 -195 -215 -94 -64 -181 -99 -380 -152
-207 -55 -205 -55 -205 -29 0 69 66 148 155 187 36 16 65 32 65 36 0 16 -55
21 -99 9 -74 -19 -158 -62 -286 -147 -67 -44 -154 -92 -198 -108 l-77 -29 0
-47 c0 -45 1 -48 32 -54 37 -7 68 -32 68 -55 0 -9 -22 -39 -50 -66 -39 -39
-50 -56 -50 -81 l0 -32 100 33 c125 42 226 67 405 101 124 24 172 27 410 31
149 3 284 3 300 2 30 -4 30 -4 -21 -36 -50 -30 -144 -119 -144 -136 0 -4 14 0
32 9 56 29 167 63 228 70 33 4 60 4 60 1 0 -6 -74 -41 -177 -83 -85 -34 -217
-105 -242 -129 -8 -7 35 2 95 21 269 86 426 110 859 129 244 11 432 -21 590
-100 50 -25 94 -45 99 -45 4 0 21 11 38 25 51 43 63 28 28 -40 -25 -48 -25
-45 3 -75 86 -93 124 -185 106 -254 -12 -47 -35 -76 -58 -76 -21 0 -148 61
-222 106 -31 19 -59 34 -63 34 -3 0 7 -36 23 -79 50 -136 108 -201 179 -201
39 0 142 32 225 70 61 28 67 33 72 67 12 71 35 128 75 187 22 32 40 70 40 83
0 71 71 -49 78 -130 3 -48 1 -55 -31 -93 -20 -22 -53 -67 -74 -99 -31 -46 -48
-61 -83 -74 -88 -33 -116 -127 -65 -227 l25 -49 -34 -35 c-19 -19 -39 -45 -45
-57 -24 -47 -51 -19 -51 53 0 52 -18 64 -105 75 -154 19 -286 80 -381 174 -54
53 -63 69 -87 144 -15 46 -26 86 -24 87 2 2 32 -26 68 -63 35 -36 86 -83 113
-105 86 -69 228 -122 312 -116 71 5 66 24 -8 32 -110 11 -239 85 -384 218 -74
69 -174 146 -174 134 0 -3 9 -42 20 -88 34 -141 23 -167 -28 -70 -17 32 -44
100 -61 151 -39 121 -88 206 -151 265 -43 41 -102 76 -127 76 -4 0 9 -17 28
-37 39 -41 110 -134 153 -200 26 -39 38 -105 22 -120 -3 -4 -19 5 -34 20 -33
32 -103 64 -160 73 -35 5 -49 15 -79 53 -83 105 -125 138 -195 155 -25 6 -28
3 -28 -17 0 -37 40 -87 104 -133 81 -56 109 -112 100 -194 -4 -33 -8 -60 -11
-60 -2 0 -15 7 -28 16 -17 11 -36 14 -55 10 -25 -5 -32 -1 -44 23 -20 37 -78
87 -124 107 -20 8 -71 22 -112 30 -41 8 -85 17 -97 20 -38 8 -26 -9 28 -39 27
-16 85 -58 127 -94 82 -69 112 -86 180 -103 50 -13 55 -34 11 -49 -67 -23
-122 -14 -221 37 -219 112 -376 246 -438 374 -20 42 -41 87 -45 100 l-8 23 -4
-26 c-2 -14 5 -71 16 -126 26 -128 26 -131 -2 -105 -31 29 -61 28 -84 -4 -18
-25 -27 -27 -146 -37 -148 -12 -156 -9 -213 77 -32 49 -82 196 -66 196 4 0 36
-18 72 -40 207 -124 230 -135 230 -112 0 12 -70 76 -122 110 -54 37 -182 97
-226 107 l-31 6 24 -78 c14 -43 28 -99 31 -126 l7 -47 -44 25 c-54 31 -189 75
-230 75 -24 0 -29 -4 -29 -24 0 -21 6 -24 51 -30 68 -9 135 -35 193 -75 81
-56 107 -128 67 -180 -18 -23 -22 -24 -97 -18 -60 6 -94 15 -147 41 l-68 34 3
-61 c3 -58 4 -61 33 -69 17 -5 83 -10 147 -11 65 -1 118 -4 118 -6 0 -2 -22
-27 -49 -57 -69 -75 -128 -167 -146 -227 -27 -92 -15 -226 24 -261 31 -28 66
-29 97 -3 16 13 62 36 102 51 132 47 166 74 166 131 0 41 -14 58 -70 85 -38
19 -48 20 -80 10 -34 -12 -104 -64 -104 -79 0 -4 31 -3 69 2 58 8 72 7 95 -8
15 -10 25 -22 23 -28 -6 -20 -72 -35 -154 -36 -83 -1 -83 -1 -83 25 0 50 99
168 197 234 85 57 156 85 278 111 233 49 424 7 785 -172 175 -87 389 -214 378
-224 -2 -2 -31 7 -65 20 -91 37 -230 49 -493 41 -124 -3 -259 -10 -300 -16
-41 -6 -102 -13 -135 -16 -82 -8 -146 -38 -199 -94 -98 -105 -185 -158 -314
-191 -89 -22 -155 -24 -237 -4 -83 20 -85 20 -85 -20 0 -28 5 -37 30 -50 30
-16 50 -43 50 -68 0 -12 -9 -14 -40 -10 -33 5 -40 3 -40 -11 0 -12 9 -16 35
-16 25 0 35 -4 35 -15 0 -25 -29 -73 -50 -85 -15 -8 -20 -21 -20 -50 l0 -40
54 35 c58 39 76 67 76 121 0 34 0 34 23 19 34 -22 106 -29 168 -16 39 9 66 23
99 52 211 187 354 244 739 294 155 20 495 20 621 0 188 -31 448 -135 612 -246
176 -119 345 -276 450 -419 83 -113 174 -276 198 -355 46 -149 38 -138 113
-157 117 -31 132 -50 132 -163 -1 -91 -14 -104 -166 -165 -71 -29 -148 -65
-171 -80 -53 -36 -88 -93 -88 -145 0 -22 -5 -47 -10 -55 -11 -17 -33 -7 -138
67 l-63 45 -41 -28 c-53 -37 -146 -45 -197 -16 -37 20 -71 73 -71 110 0 35 61
92 97 92 58 0 134 -31 179 -72 l45 -41 81 25 c45 14 84 30 86 36 2 6 -18 13
-45 17 -72 10 -189 43 -236 66 -23 12 -73 52 -112 89 -88 85 -156 120 -255
132 -72 8 -194 -4 -204 -21 -3 -4 21 -7 53 -8 62 -2 106 -15 133 -40 24 -21
23 -44 -3 -77 -29 -36 -18 -43 22 -15 24 17 50 24 94 27 52 2 66 -1 110 -27
31 -19 44 -32 35 -34 -73 -22 -117 -45 -160 -84 -46 -41 -51 -50 -48 -82 3
-34 7 -38 72 -69 l68 -33 -4 -59 c-11 -147 -139 -242 -386 -285 -188 -33 -513
-37 -773 -9 -54 5 -78 3 -129 -15 -38 -14 -107 -25 -183 -31 -167 -13 -281
-48 -399 -120 -62 -39 -102 -38 -106 2 -3 22 5 32 50 62 29 20 58 36 65 36 6
0 14 4 17 9 9 15 -106 -16 -198 -52 -98 -39 -224 -109 -273 -152 -34 -29 -34
-31 -31 -97 l3 -68 45 30 c25 16 62 50 82 75 36 45 37 46 49 23 51 -95 -51
-240 -148 -210 l-33 10 0 -60 0 -61 338 7 c339 6 362 8 462 45 79 29 146 26
259 -10 64 -21 125 -33 182 -36 85 -6 86 -5 160 35 99 54 219 89 219 64 0 -5
-10 -13 -22 -19 -13 -6 -43 -27 -66 -47 l-44 -36 395 0 c267 0 396 3 399 11 3
9 398 20 398 11 0 -1 -10 -7 -22 -12 -17 -6 -6 -9 46 -9 59 -1 76 3 122 30 29
16 56 34 59 40 12 19 35 8 62 -31 35 -49 45 -50 213 -7 l125 32 31 60 c17 32
42 67 55 77 29 22 119 47 169 49 32 1 33 1 10 9 -14 4 -44 13 -67 19 -47 13
-66 38 -65 84 1 38 41 79 106 110 29 14 96 56 149 93 52 38 137 98 188 134 50
36 143 108 205 162 126 107 178 148 188 148 3 0 -2 -17 -13 -38 -11 -21 -25
-67 -31 -103 -7 -35 -17 -88 -22 -116 -9 -50 -13 -56 -81 -108 -40 -30 -90
-71 -112 -91 -37 -33 -38 -35 -13 -30 90 20 188 88 322 225 74 75 98 94 139
106 27 8 53 12 58 9 27 -16 -12 -128 -66 -192 -32 -39 -137 -111 -247 -170
-83 -45 -197 -75 -250 -66 l-33 6 38 -35 c52 -50 50 -80 -6 -102 -39 -15 -48
-15 -79 -2 -19 8 -53 36 -74 62 -83 101 -82 101 -94 89 -8 -9 -6 -27 9 -74 23
-71 26 -125 10 -185 -20 -74 -67 -103 -236 -146 -51 -13 -95 -29 -97 -36 -9
-23 43 -14 198 31 l149 44 50 56 c57 66 137 122 234 167 192 89 257 123 355
188 114 75 250 197 316 283 36 48 122 190 122 203 0 3 -17 5 -37 5 -34 0 -41
5 -65 43 -60 94 -74 187 -38 256 24 48 45 65 185 149 132 79 188 134 238 233
37 72 38 77 35 168 l-3 94 -45 13 c-51 16 -180 19 -180 5 0 -5 6 -16 13 -23
36 -37 69 -89 64 -102 -5 -13 -16 -12 -78 5 -39 11 -87 26 -106 34 -35 15 -35
16 -31 63 6 67 48 153 98 201 50 48 140 95 215 112 l55 12 0 114 c0 62 -2 113
-5 113 -2 0 -11 -12 -19 -27 -15 -30 -95 -113 -108 -113 -4 0 -8 43 -8 95 0
108 21 178 67 228 l28 29 -90 -5 c-54 -3 -113 -14 -148 -26 -69 -25 -97 -17
-134 38 -27 39 -29 77 -8 127 11 27 11 36 2 39 -7 2 -25 7 -41 12 -16 5 -36
20 -45 33 l-15 23 76 -5 c43 -3 83 -10 91 -16 24 -20 27 -1 6 37 -11 20 -51
79 -89 131 -39 52 -82 118 -96 145 -42 80 -64 105 -119 140 -101 65 -181 75
-312 39 -66 -18 -183 -71 -183 -82 0 -5 21 -5 48 -1 57 9 203 11 254 3 35 -6
78 -35 78 -54 0 -5 -7 -16 -16 -24 -13 -14 -32 -15 -122 -10 -127 8 -220 -5
-342 -48 -107 -38 -152 -61 -266 -136 -143 -94 -216 -168 -269 -274 -39 -78
-45 -98 -45 -152 0 -105 -3 -102 105 -98 138 6 266 -28 335 -88 29 -25 33 -31
20 -40 -8 -5 -37 -10 -65 -10 -71 0 -201 -49 -303 -113 -124 -78 -148 -89
-213 -94 -136 -13 -267 65 -202 118 12 10 53 14 159 14 121 0 146 3 160 17 16
16 14 17 -22 22 -73 11 -348 108 -539 189 -331 141 -584 282 -689 382 -45 42
-55 60 -70 116 -21 77 -19 196 3 223 13 15 17 14 48 -16 19 -18 54 -60 78 -94
51 -71 133 -149 219 -206 34 -23 113 -78 176 -124 123 -88 315 -207 392 -242
73 -33 221 -61 232 -43 3 5 -16 16 -42 26 -26 10 -63 28 -82 40 -20 13 -65 37
-100 55 -63 32 -64 32 -39 46 39 21 68 16 112 -20 78 -62 132 -81 157 -51 18
22 4 49 -45 84 -39 28 -44 35 -34 52 13 26 49 39 104 39 35 0 52 7 92 38 56
45 130 129 193 221 44 64 72 84 182 135 10 5 10 7 -2 13 -8 3 -34 25 -59 48
-33 31 -42 46 -37 62 10 33 89 108 137 131 53 26 129 29 163 7 23 -15 24 -15
30 10 10 38 -1 61 -33 74 -50 21 -91 67 -91 101 0 66 64 115 183 140 49 10 65
9 107 -5 28 -9 64 -28 81 -42 16 -14 32 -24 34 -22 2 3 -6 23 -18 46 -14 27
-42 57 -77 80 -59 42 -100 93 -100 127 0 27 61 87 116 115 114 59 299 43 400
-34 45 -34 101 -105 109 -136 l7 -27 -74 -4 c-48 -3 -90 -13 -123 -28 l-50
-24 85 -8 c118 -12 310 -55 400 -90 147 -57 273 -219 201 -258 -35 -18 -143
-10 -203 15 -15 6 -18 1 -18 -31 0 -43 27 -89 139 -238 84 -113 85 -119 3
-152 l-52 -21 26 -24 c22 -21 37 -25 125 -29 l99 -5 0 153 c0 97 -4 152 -10
152 -6 0 -16 11 -22 25 -10 22 -8 30 10 55 21 28 22 38 22 299 l0 270 -52 17
c-38 12 -94 17 -198 18 -119 2 -151 6 -180 20 -70 37 -90 56 -90 87 0 52 26
55 253 33 97 -10 94 -5 -62 100 -141 94 -419 207 -606 246 -176 37 -492 32
-625 -11 -119 -38 -192 -93 -306 -230 -33 -39 -61 -64 -65 -58 -11 18 9 98 38
152 39 72 118 149 191 186 34 17 128 54 209 81 81 28 152 56 158 62 7 7 3 9
-15 5 -14 -3 -47 -9 -75 -12 -112 -15 -226 -50 -334 -101 l-114 -54 -22 24
c-46 50 -135 79 -273 89 -59 5 -71 -4 -43 -30 31 -30 53 -83 58 -143 7 -68
-13 -280 -29 -315 -12 -26 -50 -45 -55 -28 -2 6 -18 32 -35 59 l-31 49 -22
-50 c-23 -53 -72 -102 -108 -109 -12 -2 -103 -16 -202 -31 -99 -14 -218 -33
-265 -40 -247 -42 -594 -76 -575 -58 21 20 174 62 268 73 53 6 125 19 160 29
70 19 356 142 357 153 0 14 -74 20 -173 13 -56 -4 -154 -8 -217 -8 l-115 -2
-3 46 c-2 38 2 52 24 78 14 17 35 36 46 42 11 6 86 15 167 20 198 12 277 25
334 54 59 30 81 31 147 6 l51 -19 92 24 c50 14 96 29 100 33 4 4 5 30 2 58
l-7 49 -58 -4 c-49 -4 -64 -1 -92 18 -46 32 -58 49 -58 82 0 41 24 83 67 115
30 23 46 28 93 28 l57 0 -4 45 c-7 87 56 155 155 167 87 10 152 -50 124 -112
-6 -14 -43 -45 -82 -71 -38 -26 -70 -51 -70 -55 0 -17 116 -9 178 12 99 33
163 120 131 178 -22 40 -136 93 -206 96 -146 7 -343 -23 -467 -69 -69 -26
-166 -74 -166 -81 0 -3 34 -4 76 -3 65 3 78 0 88 -15 9 -15 6 -22 -17 -43 -32
-28 -60 -30 -137 -9 -30 8 -69 15 -87 15 -17 0 -38 3 -47 6 -42 16 5 106 87
165 27 19 34 29 22 29 -34 0 -135 -31 -197 -60 -35 -17 -73 -30 -85 -30 -31 0
-71 39 -81 80 -8 33 -29 49 -45 34z m-45 -116 c26 -11 66 -40 88 -64 37 -40
40 -48 40 -100 0 -55 -1 -57 -57 -111 -31 -30 -70 -64 -87 -74 -18 -11 -24
-19 -15 -19 40 0 123 34 193 80 174 114 263 132 334 67 51 -47 16 -89 -89
-106 -147 -23 -172 -36 -424 -215 -109 -78 -201 -127 -261 -140 -26 -6 -32 -3
-42 19 -7 14 -12 35 -12 46 0 29 28 90 52 116 12 13 19 25 16 28 -3 3 -49 -16
-103 -41 -86 -41 -103 -46 -150 -42 -30 3 -61 10 -69 17 -23 19 -20 67 7 92
33 31 61 39 143 39 76 0 82 2 63 23 -6 7 -20 30 -32 51 -12 22 -27 41 -34 43
-6 2 -24 -10 -39 -26 -34 -39 -54 -40 -54 -3 1 48 38 112 107 183 150 156 281
198 425 137z m374 -422 c10 -39 -4 -66 -33 -66 -43 0 -153 21 -153 30 0 15 30
32 77 45 77 21 102 19 109 -9z m-1116 -86 c0 -93 47 -137 134 -128 61 7 76 -3
56 -39 -19 -33 -78 -68 -142 -83 -39 -10 -52 -9 -83 6 -98 46 -102 190 -8 264
36 28 43 25 43 -20z m2494 -132 c37 -52 6 -126 -89 -218 -37 -36 -95 -106
-131 -156 -70 -101 -121 -152 -186 -186 -37 -19 -58 -22 -146 -22 l-102 0 -11
-38 c-12 -46 -25 -49 -34 -8 -8 36 -51 90 -71 90 -8 0 -22 -9 -31 -20 -22 -25
-47 -25 -89 1 -51 31 -74 76 -74 147 0 51 4 65 26 92 38 44 60 37 104 -35 20
-33 42 -60 48 -60 6 0 21 15 34 34 40 59 72 76 142 76 39 0 70 -6 80 -14 15
-13 15 -15 0 -32 -24 -27 -16 -29 42 -10 74 25 144 80 238 190 154 179 215
220 250 169z m-2736 -84 c33 -23 28 -49 -14 -69 -84 -40 -161 -24 -137 27 12
28 66 57 103 58 14 0 36 -7 48 -16z m2472 -596 c0 -23 -103 -220 -174 -333
-77 -124 -108 -160 -184 -217 -71 -53 -112 -111 -112 -158 0 -20 -3 -39 -6
-43 -4 -3 -33 21 -65 55 -54 56 -59 65 -59 106 0 50 21 82 52 82 10 0 21 -7
24 -15 10 -25 20 -17 38 29 22 56 137 168 233 225 39 23 79 52 91 64 28 29 92
153 92 177 0 21 25 39 53 40 9 0 17 -6 17 -12z m-2930 -247 c24 -7 23 -8 -15
-19 -178 -51 -188 -52 -183 -19 5 38 122 60 198 38z m1278 -59 c2 -18 -2 -40
-9 -48 -11 -14 -90 -20 -102 -8 -9 10 20 61 45 79 36 25 62 16 66 -23z m-130
-265 c37 -30 90 -69 117 -87 61 -40 105 -80 105 -94 -1 -49 -28 -35 -260 130
-129 91 -139 104 -75 104 41 0 54 -6 113 -53z m1563 -4 c-5 -10 -16 -27 -25
-38 -15 -19 -15 -19 -16 11 0 35 6 44 32 44 15 0 17 -4 9 -17z m679 7 c0 -18
-27 -64 -49 -84 -27 -24 -27 -8 0 49 19 40 49 61 49 35z m-124 -42 c81 -96 92
-217 28 -288 -35 -39 -94 -60 -254 -94 -36 -7 -86 -20 -112 -27 -93 -26 -63
17 62 88 113 64 199 123 210 143 28 52 -4 122 -60 133 -16 4 -30 10 -30 15 0
10 95 58 122 61 3 1 19 -14 34 -31z m-686 -91 c0 -52 -15 -80 -30 -57 -5 8
-13 30 -16 49 -5 26 -3 37 11 47 26 19 35 9 35 -39z m1153 27 c57 -20 139 -78
178 -126 98 -122 195 -260 220 -313 35 -74 54 -190 45 -268 -5 -38 -21 -84
-46 -131 -21 -39 -43 -98 -49 -131 -13 -71 -17 -76 -32 -39 -16 42 -5 97 42
209 37 87 41 105 36 153 -14 130 -81 234 -238 365 -57 48 -107 87 -110 87 -4
0 19 -70 52 -155 32 -85 73 -205 91 -267 30 -105 33 -124 33 -258 0 -165 -14
-231 -92 -423 -45 -112 -50 -133 -32 -121 29 18 -41 -178 -97 -270 -69 -114
-204 -284 -298 -373 -115 -110 -295 -247 -436 -331 -307 -184 -356 -212 -367
-212 -7 0 -13 2 -13 4 0 2 27 33 59 68 42 44 87 79 148 113 323 179 444 278
675 550 139 165 210 255 233 295 11 20 16 25 -137 -125 -308 -302 -525 -430
-1198 -710 -358 -149 -631 -250 -721 -269 -41 -8 -64 -19 -75 -34 -21 -31
-100 -68 -298 -142 -137 -51 -170 -60 -177 -49 -20 31 -3 43 111 80 63 20 152
53 197 73 45 20 86 36 91 36 5 0 15 7 22 15 10 12 9 15 -6 15 -42 1 -172 11
-224 17 l-55 6 50 9 c157 28 335 99 785 315 80 39 228 109 330 157 301 142
350 168 450 235 117 78 363 283 425 354 54 62 116 177 155 290 16 45 45 122
66 171 29 72 35 98 32 136 -8 77 -35 120 -101 158 -53 31 -62 41 -93 106 -34
72 -64 190 -51 203 4 3 23 -2 42 -13 l36 -19 19 24 c10 14 33 57 50 95 18 39
53 113 77 164 25 52 42 96 39 99 -10 11 -76 -31 -137 -86 -33 -29 -61 -52 -63
-50 -2 2 0 39 5 81 20 202 164 297 352 232z m-1630 -121 c12 -7 8 -43 -5 -43
-14 0 -98 48 -98 57 0 6 90 -6 103 -14z m977 -3 c0 -24 -56 -54 -118 -65 -35
-6 -41 -4 -36 9 10 27 91 74 132 75 16 1 22 -5 22 -19z m-2630 -49 c0 -14
-116 -67 -186 -85 -75 -19 -117 -21 -112 -3 8 22 85 57 170 77 95 21 128 24
128 11z m3533 -328 c39 -42 67 -111 67 -169 0 -28 -3 -54 -7 -57 -3 -4 -17 25
-29 65 -13 40 -35 93 -49 119 -39 72 -31 92 18 42z m-786 -178 c62 -18 107
-49 146 -98 47 -57 43 -113 -11 -205 -23 -39 -42 -75 -42 -81 0 -22 45 -101
57 -101 18 0 58 65 78 128 9 28 20 52 25 52 13 0 50 -50 56 -75 4 -15 -14 -58
-57 -136 -34 -63 -67 -124 -73 -137 -7 -14 -16 -20 -26 -16 -8 4 -38 12 -65
19 -111 27 -144 60 -152 153 -6 68 12 135 53 196 l26 38 -30 -6 c-16 -4 -65
-21 -108 -37 -212 -82 -219 -84 -320 -71 -103 13 -166 31 -171 49 -6 18 51 50
138 78 92 29 316 73 417 82 84 7 89 16 35 63 -46 41 -89 59 -160 68 -108 13
-63 50 63 51 39 1 93 -6 121 -14z m-97 -352 c-1 -31 -40 -107 -72 -140 -17
-18 -59 -74 -92 -125 -66 -100 -111 -138 -162 -138 -69 0 -134 44 -134 90 0
37 29 60 151 119 80 39 130 72 198 131 51 44 96 80 101 80 6 0 10 -8 10 -17z
m1193 -284 c91 -41 28 -159 -85 -159 -53 0 -111 34 -116 67 -5 36 91 100 155
102 12 1 33 -4 46 -10z m-1093 -30 c48 -14 75 -29 103 -57 20 -21 37 -41 37
-45 0 -4 -35 -5 -78 -1 -67 6 -85 4 -126 -14 -26 -12 -59 -31 -74 -42 -38 -30
-90 -106 -98 -143 -13 -65 -18 -68 -71 -49 -52 19 -140 93 -154 129 -14 37 15
70 95 110 39 20 90 49 114 65 123 85 123 85 252 47z m67 -194 c5 -18 -36 -75
-69 -95 -75 -46 -128 -44 -128 5 0 31 29 54 102 80 66 24 89 27 95 10z m-576
-296 c21 -39 -13 -165 -53 -196 -19 -14 -117 -52 -155 -59 -31 -6 -33 -5 -33
23 0 25 16 46 88 115 48 46 95 97 105 111 22 33 33 34 48 6z m249 -4 c-21 -23
-60 -35 -60 -18 0 17 36 43 58 43 l25 0 -23 -25z m-737 -356 c20 -5 37 -13 37
-17 0 -13 -85 -60 -129 -72 -51 -13 -135 -5 -170 17 l-23 15 33 21 c72 44 172
58 252 36z m-1546 -236 c54 -112 109 -152 231 -172 68 -11 122 -45 163 -103
18 -25 19 -32 8 -43 -17 -17 -211 -97 -218 -90 -2 3 5 23 18 45 17 31 20 44
11 60 -6 11 -13 20 -16 20 -3 0 -25 -16 -47 -36 -64 -54 -174 -105 -243 -111
-141 -13 -344 84 -344 163 0 28 -5 29 -75 8 -64 -18 -117 -8 -165 32 -34 29
-39 63 -12 87 55 50 196 80 265 58 48 -16 79 -55 71 -90 l-7 -26 34 31 c19 18
61 49 94 70 33 20 88 63 123 96 34 32 67 58 72 58 5 0 21 -26 37 -57z m1148
17 c-19 -30 -249 -115 -296 -108 -32 4 -28 17 12 50 35 28 106 49 224 65 66 9
70 9 60 -7z m-808 -79 c70 -19 176 -29 226 -21 44 6 47 6 47 -16 0 -17 -13
-30 -46 -50 -58 -34 -130 -35 -204 -3 -51 22 -120 87 -120 114 0 14 3 14 28 1
15 -8 46 -19 69 -25z m1429 -175 c-127 -119 -244 -211 -254 -201 -5 5 88 111
184 210 56 58 146 115 181 115 16 0 -11 -30 -111 -124z m-156 38 c0 -53 -71
-113 -235 -201 -101 -53 -177 -67 -312 -58 -102 7 -135 22 -117 52 10 16 27
18 145 19 170 2 189 9 429 158 82 51 90 54 90 30z m-256 -48 c-6 -15 -39 -31
-86 -42 -43 -10 -35 21 10 39 48 21 83 22 76 3z m-208 -43 c-10 -11 -56 -11
-56 -1 0 4 14 8 32 8 17 0 28 -3 24 -7z m769 -27 c19 -8 35 -19 35 -25 0 -14
-61 -70 -83 -77 -52 -17 -92 29 -67 76 20 38 63 48 115 26z"/>
<path d="M1725 4878 c-2 -7 -5 -40 -7 -74 -3 -42 -11 -70 -27 -92 -12 -18 -17
-32 -11 -32 17 0 155 37 217 58 l53 17 -51 18 c-31 12 -69 37 -101 68 -52 51
-66 58 -73 37z"/>
<path d="M1126 355 c-8 -42 -55 -81 -129 -106 -49 -17 -50 -18 -19 -19 19 0
66 11 106 24 40 14 96 28 125 32 57 7 66 19 21 29 -17 4 -42 22 -58 41 -15 19
-30 34 -33 34 -4 0 -10 -16 -13 -35z"/>
<path d="M2480 4346 c-25 -13 -65 -42 -90 -65 l-45 -41 35 5 c76 11 259 25
338 25 47 0 82 4 82 10 0 19 -195 90 -244 90 -17 -1 -51 -11 -76 -24z"/>
<path d="M5080 4350 c-12 -7 -11 -10 5 -16 11 -4 23 -9 28 -11 4 -2 7 5 7 16
0 22 -16 27 -40 11z"/>
<path d="M3135 2740 c-3 -5 1 -10 10 -10 9 0 13 5 10 10 -3 6 -8 10 -10 10 -2
0 -7 -4 -10 -10z"/>
<path d="M928 2513 c-5 -82 -33 -155 -63 -167 -9 -3 -40 -3 -69 0 -49 6 -54 5
-78 -24 -14 -17 -40 -70 -57 -119 -48 -132 -87 -197 -157 -262 -63 -59 -199
-137 -285 -162 -21 -7 -39 -16 -39 -21 0 -11 164 -10 236 2 274 48 404 124
483 284 48 98 84 282 79 401 -4 83 -21 145 -38 145 -4 0 -10 -35 -12 -77z"/>
<path d="M1038 2439 c-2 -6 13 -28 34 -48 73 -69 63 -157 -42 -377 -78 -164
-112 -200 -264 -276 -66 -33 -162 -87 -214 -120 -52 -32 -115 -70 -141 -82
-114 -58 -248 -73 -321 -36 -22 11 -51 20 -65 20 l-25 0 0 -162 c0 -162 0
-163 18 -133 11 17 26 36 36 44 28 23 50 -8 49 -67 -1 -57 -11 -80 -64 -144
-52 -62 -52 -83 -1 -57 122 61 198 95 334 150 145 59 157 62 238 63 71 0 99
-5 170 -30 47 -17 110 -44 140 -59 105 -53 249 -96 342 -102 107 -7 164 7 227
56 74 57 170 101 220 101 37 0 49 -5 75 -34 l32 -34 23 24 c20 20 51 33 161
64 20 5 13 9 -37 19 -66 13 -93 35 -93 78 0 36 -14 34 -68 -10 -64 -53 -242
-119 -242 -91 0 24 126 187 198 256 141 136 235 190 411 234 206 53 391 21
451 -78 l18 -30 11 51 c20 95 -31 246 -106 312 -48 42 -129 78 -190 85 -61 7
-173 -18 -233 -53 -25 -15 -110 -90 -190 -168 -143 -139 -218 -198 -334 -265
-62 -35 -62 -50 0 -30 45 15 53 7 28 -28 -30 -40 -101 -74 -145 -69 -34 4 -36
3 -64 -50 -26 -50 -71 -92 -195 -181 -10 -8 -45 -20 -77 -27 -171 -41 -333 13
-333 112 0 21 9 53 20 71 l20 32 -39 0 c-21 0 -51 4 -67 10 -16 5 -60 13 -97
18 l-68 9 -13 -31 c-15 -36 -88 -80 -150 -92 l-39 -7 6 42 c8 63 47 115 109
145 58 28 170 56 230 56 32 0 40 5 53 31 44 84 137 157 258 201 45 16 101 40
124 54 101 59 153 168 153 323 0 103 -18 150 -83 214 -70 71 -179 126 -189 96z
m144 -116 c19 -17 24 -58 9 -67 -13 -8 -28 15 -33 52 -5 36 -2 39 24 15z"/>
<path d="M483 2376 c-33 -37 -42 -57 -51 -111 -6 -36 -20 -79 -32 -96 -52 -72
-188 -155 -327 -200 l-73 -23 0 -52 0 -52 48 18 c26 10 99 35 163 54 201 62
255 119 279 295 6 47 18 113 26 145 8 32 13 61 10 63 -2 2 -21 -16 -43 -41z"/>
<path d="M2072 2340 c-13 -71 -43 -117 -88 -136 -43 -18 -80 -17 -186 5 -187
39 -264 -12 -394 -262 -62 -120 -113 -189 -213 -287 -60 -59 -98 -82 -206
-127 -13 -5 15 -9 80 -11 113 -3 261 18 372 53 164 52 402 252 571 480 91 122
112 160 119 216 6 38 -20 129 -36 129 -4 0 -13 -27 -19 -60z"/>
<path d="M0 1665 l0 -54 43 -13 c57 -16 272 -17 289 0 9 9 5 12 -24 12 -55 0
-207 48 -255 80 -24 17 -46 30 -49 30 -2 0 -4 -25 -4 -55z"/>
<path d="M990 1424 c60 -24 100 -48 100 -58 0 -18 -49 -61 -97 -85 -99 -49
-34 -53 82 -4 33 14 89 35 125 48 128 45 152 65 78 65 -24 0 -68 7 -98 15 -54
15 -220 31 -190 19z"/>
<path d="M5081 1130 c-96 -304 -225 -571 -343 -712 -82 -99 -231 -187 -419
-248 -75 -25 -107 -30 -163 -28 -67 3 -72 5 -91 35 -11 18 -25 32 -32 33 -14
0 -62 -59 -123 -148 l-42 -64 148 4 149 3 205 67 c113 37 237 76 275 87 39 11
111 43 160 72 154 88 169 100 184 149 7 25 40 116 72 204 l59 159 -2 246 -3
247 -34 -106z"/>
<path d="M410 1058 c-13 -36 -21 -44 -65 -61 -27 -10 -75 -28 -105 -40 -80
-30 -240 -120 -240 -134 0 -16 -6 -17 129 7 195 33 345 44 441 31 47 -6 121
-16 165 -21 97 -12 159 -24 245 -49 106 -30 291 -61 366 -61 88 0 165 19 294
70 l103 41 71 -34 c141 -67 216 -69 335 -9 73 36 77 54 9 35 -67 -18 -195 -10
-254 16 -23 11 -69 44 -102 74 -63 58 -58 56 -200 72 -48 5 -53 4 -61 -17 -18
-48 -74 -80 -183 -102 -95 -20 -182 -20 -270 -2 -89 19 -119 36 -204 117 -40
38 -79 69 -86 69 -7 0 -20 -13 -30 -29 -13 -24 -27 -31 -73 -41 -31 -7 -73 -9
-94 -5 -49 9 -111 46 -139 84 -12 17 -26 31 -30 31 -4 0 -14 -19 -22 -42z"/>
<path d="M2040 1061 c-25 -16 -58 -45 -73 -65 l-28 -36 85 0 85 0 -11 31 c-6
17 -8 46 -5 65 3 19 3 34 -1 34 -4 0 -27 -13 -52 -29z"/>
<path d="M382 800 c-81 -11 -196 -42 -297 -78 l-80 -29 -3 -98 c-2 -77 0 -96
10 -92 234 105 559 179 786 178 92 -1 112 2 112 14 0 17 -71 55 -160 85 -75
24 -263 35 -368 20z"/>
</g>
</svg>
