<?xml version="1.0" standalone="no"?>
<!DOCTYPE svg PUBLIC "-//W3C//DTD SVG 20010904//EN"
 "http://www.w3.org/TR/2001/REC-SVG-20010904/DTD/svg10.dtd">
<svg version="1.0" xmlns="http://www.w3.org/2000/svg"
 width="260.000000pt" height="260.000000pt" viewBox="0 0 260.000000 260.000000"
 preserveAspectRatio="xMidYMid meet">
<metadata>
Created by potrace 1.14, written by Peter Selinger 2001-2017
</metadata>
<g transform="translate(0.000000,260.000000) scale(0.100000,-0.100000)"
fill="#000000" stroke="none">
<path d="M41 2568 c-1 -20 25 -88 69 -181 17 -37 29 -70 26 -75 -2 -4 -24 -9
-48 -10 -82 -5 -83 -8 -23 -70 30 -31 55 -62 55 -68 0 -6 -13 -29 -29 -51 -37
-51 -44 -73 -47 -158 -6 -156 -5 -205 5 -223 5 -10 11 -29 13 -43 2 -13 7 -29
11 -36 4 -6 9 -24 11 -40 7 -52 28 -123 37 -123 5 0 9 6 9 13 0 6 14 -16 31
-50 19 -41 34 -60 43 -57 8 3 26 -6 41 -20 15 -14 34 -26 41 -26 8 0 14 -3 15
-7 0 -5 2 -23 4 -41 4 -41 27 -92 40 -92 6 0 18 -30 28 -68 10 -40 29 -81 45
-100 16 -18 34 -55 41 -83 7 -27 17 -46 22 -43 24 14 119 -125 145 -212 10
-33 17 -67 16 -76 0 -10 4 -20 9 -24 5 -3 8 -2 7 3 -2 4 2 10 7 12 6 2 20 -15
31 -38 22 -42 35 -45 27 -6 -6 32 -6 65 1 72 9 9 17 -2 20 -29 2 -12 6 -41 10
-63 4 -22 9 -56 12 -75 3 -19 7 -77 9 -127 3 -124 4 -123 -156 -121 -126 1
-188 -11 -247 -48 -29 -19 -30 -44 0 -36 17 4 20 2 15 -11 -5 -13 -1 -16 16
-15 12 1 45 -4 73 -11 28 -7 64 -13 80 -15 16 -1 34 -5 40 -9 7 -4 25 -2 41 3
25 9 91 9 118 -1 19 -6 120 24 129 39 8 14 10 14 16 -3 6 -17 10 -14 32 20 14
22 31 57 39 78 7 20 16 37 20 37 17 0 61 71 64 102 2 18 9 49 14 68 14 43 14
43 -1 34 -10 -5 -10 -4 -2 5 7 8 9 25 4 47 -6 25 -5 34 5 34 8 0 16 -9 20 -19
3 -11 13 -25 22 -33 9 -7 14 -8 10 -2 -3 6 -8 24 -11 40 -5 26 -4 27 8 12 7
-10 15 -15 18 -12 10 9 48 -48 48 -72 0 -13 18 -57 40 -99 22 -42 40 -82 40
-90 0 -8 4 -15 9 -15 5 0 6 -12 2 -27 -5 -18 -15 -27 -32 -30 -105 -13 -143
-27 -186 -66 -30 -27 -30 -45 0 -40 30 6 51 -19 44 -52 -4 -25 -4 -25 14 -9
18 17 119 30 118 16 -5 -31 3 -34 26 -12 14 13 36 24 49 25 36 1 91 49 116
100 12 25 23 45 25 45 2 0 2 -13 0 -30 -2 -16 0 -30 5 -30 5 0 39 15 76 34 47
24 77 33 102 30 19 -2 40 0 46 4 18 10 45 12 50 3 3 -4 -6 -7 -19 -5 -14 1
-23 -2 -19 -7 8 -13 65 -11 94 4 20 10 26 23 33 67 4 30 14 64 22 77 9 13 13
23 9 23 -4 0 10 20 31 45 22 27 35 52 31 61 -3 8 -2 12 3 9 5 -3 12 3 15 12
12 42 25 133 21 152 -2 14 1 18 11 14 8 -3 14 -8 14 -12 0 -14 77 -86 112
-105 30 -16 44 -37 84 -120 26 -56 47 -113 46 -129 -1 -44 -40 -84 -97 -97
-59 -15 -86 -27 -102 -49 -16 -21 -18 -50 -1 -33 13 13 48 -2 48 -21 0 -8 16
-12 45 -12 25 0 45 3 45 8 0 4 4 7 10 7 5 0 7 -7 4 -15 -9 -22 3 -19 52 15 24
16 44 25 44 20 0 -18 18 -10 55 24 30 29 37 32 41 18 18 -57 21 -59 36 -24 11
25 13 45 6 75 -8 37 -14 163 -8 170 7 7 6 155 -1 168 -4 9 -4 20 1 25 6 6 2
33 -10 70 -10 34 -17 70 -15 80 3 17 18 139 19 156 2 16 16 19 16 3 0 -60 49
81 58 165 3 36 12 61 24 72 10 9 21 26 23 38 7 36 12 35 39 -8 14 -22 31 -44
37 -48 8 -4 9 -3 5 5 -4 6 -9 21 -12 34 -6 33 -11 57 -24 112 -7 28 -13 68
-15 91 -4 51 -36 120 -81 173 -32 37 -34 41 -14 41 17 0 19 3 10 19 -5 11 -16
25 -22 33 -7 7 -26 31 -42 53 -16 22 -57 68 -92 103 -35 34 -57 62 -49 62 25
0 17 15 -14 27 -16 6 -68 39 -115 74 -65 49 -81 65 -68 70 9 4 20 5 25 2 4 -2
7 0 7 5 0 8 -41 22 -162 57 -58 17 -73 30 -40 38 33 8 -40 29 -118 34 -41 3
-84 10 -95 16 -11 6 -93 12 -183 14 -153 3 -166 5 -206 28 -46 27 -70 33 -133
34 -47 1 -61 21 -15 21 15 0 33 4 41 9 16 10 -47 31 -109 36 -19 2 -38 4 -42
4 -5 1 -7 7 -5 14 1 6 -4 11 -11 9 -30 -6 -142 -5 -148 1 -4 3 6 44 21 89 15
46 29 97 31 115 4 31 4 31 -58 -30 -77 -76 -156 -129 -179 -122 -74 24 -234
28 -324 8 -96 -20 -125 -10 -212 75 -38 37 -77 78 -86 92 -12 19 -16 21 -16 8z
m729 -384 c0 -8 -19 -13 -24 -6 -3 5 1 9 9 9 8 0 15 -2 15 -3z m-166 -22 c3
-5 -1 -9 -9 -9 -8 0 -12 4 -9 9 3 4 7 8 9 8 2 0 6 -4 9 -8z m-79 -71 c3 -5 2
-12 -3 -15 -5 -3 -9 1 -9 9 0 17 3 19 12 6z m245 5 c0 -2 -8 -10 -17 -17 -16
-13 -17 -12 -4 4 13 16 21 21 21 13z m-60 -36 c0 -5 -5 -10 -11 -10 -5 0 -7 5
-4 10 3 6 8 10 11 10 2 0 4 -4 4 -10z m255 1 c3 -5 2 -12 -3 -15 -5 -3 -9 1
-9 9 0 17 3 19 12 6z m-142 -54 c4 3 7 1 7 -5 0 -6 -8 -10 -18 -9 -10 0 -19 7
-19 14 0 9 4 10 12 3 7 -5 15 -7 18 -3z m-99 -56 c-2 -3 -12 3 -22 13 -16 17
-16 18 5 5 12 -7 20 -15 17 -18z m282 7 c4 -7 4 -10 -1 -6 -4 4 -15 2 -24 -5
-14 -11 -14 -10 -2 6 16 20 18 21 27 5z m-536 -18 c0 -5 -5 -10 -11 -10 -5 0
-7 5 -4 10 3 6 8 10 11 10 2 0 4 -4 4 -10z m342 -36 c8 -17 8 -17 -4 -3 -7 9
-21 15 -31 13 -9 -1 -15 1 -12 6 9 14 37 5 47 -16z m212 14 c-3 -5 -10 -6 -15
-2 -5 3 -16 1 -23 -5 -9 -8 -13 -7 -13 2 0 8 12 13 28 13 15 0 26 -3 23 -8z
m-333 -15 c13 -16 12 -17 -3 -4 -10 7 -18 15 -18 17 0 8 8 3 21 -13z m36 -15
c4 -28 -6 -18 -12 12 -2 12 -1 20 2 16 4 -4 8 -16 10 -28z m63 8 c0 -2 -8 -10
-17 -17 -16 -13 -17 -12 -4 4 13 16 21 21 21 13z m-615 -16 c3 -6 -1 -7 -9 -4
-18 7 -21 14 -7 14 6 0 13 -4 16 -10z m838 -13 c3 -8 -1 -14 -8 -14 -7 0 -11
6 -8 14 3 7 6 13 8 13 2 0 5 -6 8 -13z m-583 -7 c0 -5 -5 -10 -11 -10 -5 0 -7
5 -4 10 3 6 8 10 11 10 2 0 4 -4 4 -10z m225 0 c3 -6 -1 -7 -9 -4 -18 7 -21
14 -7 14 6 0 13 -4 16 -10z m-47 -25 c-3 -3 -9 2 -12 12 -6 14 -5 15 5 6 7 -7
10 -15 7 -18z m139 3 c-3 -8 -6 -5 -6 6 -1 11 2 17 5 13 3 -3 4 -12 1 -19z
m61 -4 c1 -1 -4 -7 -13 -14 -13 -11 -14 -10 -9 5 5 11 4 16 -3 12 -5 -3 -10 0
-10 8 0 12 3 12 16 3 9 -7 17 -13 19 -14z m161 13 c8 -10 7 -14 -2 -14 -8 0
-14 6 -14 14 0 7 1 13 2 13 2 0 8 -6 14 -13z m34 -22 c-3 -9 -8 -14 -10 -11
-3 3 -2 9 2 15 9 16 15 13 8 -4z m-698 -4 c-9 -8 -36 -10 -30 -2 2 4 11 8 20
8 8 0 13 -3 10 -6z m668 -22 c-8 -8 -13 -7 -18 2 -5 8 -4 10 3 5 7 -4 12 -2
12 5 0 7 3 9 7 6 4 -4 2 -12 -4 -18z m-257 -1 c3 -4 -1 -5 -10 -4 -8 1 -18 5
-22 8 -3 4 1 5 10 4 8 -1 18 -5 22 -8z m58 4 c3 -5 -1 -9 -9 -9 -8 0 -15 4
-15 9 0 4 4 8 9 8 6 0 12 -4 15 -8z m256 4 c0 -2 -7 -7 -16 -10 -8 -3 -12 -2
-9 4 6 10 25 14 25 6z m-785 -25 c3 -5 2 -12 -3 -15 -5 -3 -9 1 -9 9 0 17 3
19 12 6z m362 2 c-4 -3 -2 -11 3 -18 7 -8 5 -12 -4 -12 -8 0 -12 7 -11 16 5
22 4 21 12 21 3 0 3 -3 0 -7z m43 -7 c-7 -7 -13 -7 -20 0 -6 6 -3 10 10 10 13
0 16 -4 10 -10z m83 -3 c-4 -10 -2 -14 4 -10 12 8 12 -19 0 -28 -4 -3 -5 -2
-2 2 3 3 0 12 -6 19 -6 7 -8 18 -4 24 10 16 15 12 8 -7z m-242 -10 c13 -16 12
-17 -3 -4 -10 7 -18 15 -18 17 0 8 8 3 21 -13z m36 2 c0 -8 -4 -12 -9 -9 -5 3
-6 10 -3 15 9 13 12 11 12 -6z m467 -4 c-10 -10 -21 -16 -24 -14 -3 3 4 11 14
19 28 20 33 17 10 -5z m-321 -6 c-3 -9 -8 -14 -10 -11 -3 3 -2 9 2 15 9 16 15
13 8 -4z m-368 -15 c3 -5 1 -10 -4 -10 -6 0 -11 5 -11 10 0 6 2 10 4 10 3 0 8
-4 11 -10z m269 2 c3 -5 -1 -9 -9 -9 -8 0 -15 4 -15 9 0 4 4 8 9 8 6 0 12 -4
15 -8z m-68 -22 c0 -12 -4 -16 -9 -11 -5 5 -6 14 -3 20 10 15 12 14 12 -9z
m139 8 c4 4 2 -3 -4 -15 -6 -13 -14 -23 -17 -23 -3 0 -2 5 1 10 4 6 1 19 -7
28 -11 15 -11 15 3 5 9 -7 19 -9 24 -5z m68 -14 c-7 -19 -10 -18 -16 5 -3 13
-1 18 9 14 7 -2 10 -11 7 -19z m-383 6 c0 -5 -5 -10 -11 -10 -5 0 -7 5 -4 10
3 6 8 10 11 10 2 0 4 -4 4 -10z m172 -34 c3 3 8 1 12 -4 11 -18 -25 -8 -41 12
-18 21 -18 21 3 3 11 -9 23 -14 26 -11z m103 6 c-3 -3 -11 0 -18 7 -9 10 -8
11 6 5 10 -3 15 -9 12 -12z m345 14 c0 -3 -4 -8 -10 -11 -5 -3 -10 -1 -10 4 0
6 5 11 10 11 6 0 10 -2 10 -4z m-616 -24 c2 -4 -4 -8 -14 -8 -10 0 -16 4 -14
8 3 4 9 8 14 8 5 0 11 -4 14 -8z m360 -4 c-6 -9 -44 -6 -44 3 0 4 11 6 24 5
13 0 22 -4 20 -8z m-128 -23 c-3 -23 -12 -26 -13 -5 -1 11 2 20 7 20 4 0 7 -7
6 -15z m-123 -10 c-3 -9 -8 -14 -10 -11 -3 3 -2 9 2 15 9 16 15 13 8 -4z m61
-15 c-6 -6 -10 -3 -10 10 0 13 4 16 10 10 7 -7 7 -13 0 -20z m113 -2 c-3 -8
-6 -5 -6 6 -1 11 2 17 5 13 3 -3 4 -12 1 -19z m-83 -4 c3 -8 2 -12 -4 -9 -6 3
-10 10 -10 16 0 14 7 11 14 -7z m41 -4 c-3 -5 -12 -10 -18 -10 -7 0 -6 4 3 10
19 12 23 12 15 0z m315 1 c0 -5 -7 -12 -16 -15 -14 -5 -15 -4 -4 9 14 17 20
19 20 6z m-428 -16 c2 3 5 -2 5 -10 0 -19 0 -19 -23 7 -12 14 -13 18 -3 10 9
-6 18 -10 21 -7z m446 -11 c0 -17 -3 -22 -8 -13 -5 6 -6 18 -3 26 8 19 11 16
11 -13z m-388 11 c0 -2 -6 -8 -13 -14 -10 -8 -14 -7 -14 2 0 8 6 14 14 14 7 0
13 -1 13 -2z m-212 -30 c-3 -3 -9 2 -12 12 -6 14 -5 15 5 6 7 -7 10 -15 7 -18z
m63 8 c13 -16 12 -17 -3 -4 -10 7 -18 15 -18 17 0 8 8 3 21 -13z m479 -37 c0
-6 -7 -1 -15 10 -8 10 -15 23 -15 28 0 6 7 1 15 -10 8 -10 15 -23 15 -28z m35
34 c3 -6 -1 -7 -10 -4 -11 5 -14 2 -9 -12 5 -15 4 -16 -4 -4 -11 15 -7 30 8
30 5 0 12 -4 15 -10z m-458 -15 c0 -8 -4 -12 -9 -9 -5 3 -6 10 -3 15 9 13 12
11 12 -6z m383 -3 c0 -4 -10 -13 -22 -21 -23 -14 -23 -14 -4 8 20 22 26 25 26
13z m12 -39 c-3 -16 -7 -22 -10 -15 -4 13 4 42 11 42 2 0 2 -12 -1 -27z m-29
-8 c-3 -9 -8 -14 -10 -11 -3 3 -2 9 2 15 9 16 15 13 8 -4z m-51 -35 l-9 -24
-5 22 c-4 12 -2 20 3 16 5 -3 9 0 9 7 0 7 2 10 5 7 3 -3 2 -16 -3 -28z m43 0
c3 -6 -1 -7 -9 -4 -18 7 -21 14 -7 14 6 0 13 -4 16 -10z m-76 -38 c-1 -15 -2
-15 -6 -1 -3 11 -12 15 -26 13 -21 -4 -21 -4 -2 5 25 11 35 5 34 -17z m61 24
c0 -3 -4 -8 -10 -11 -5 -3 -10 -1 -10 4 0 6 5 11 10 11 6 0 10 -2 10 -4z
m-143 -49 c-2 -7 3 -18 12 -24 15 -12 15 -14 0 -25 -9 -7 -17 -17 -17 -23 -1
-5 -12 -10 -24 -10 -13 0 -22 5 -20 13 3 15 -15 16 -20 0 -3 -8 -6 -7 -10 4
-5 11 0 15 15 14 12 -1 21 -7 20 -14 -2 -7 6 -12 18 -12 11 0 18 4 14 9 -3 6
3 14 12 20 15 9 16 12 4 20 -15 10 -24 54 -9 45 5 -3 7 -11 5 -17z m39 -10 c1
-9 -2 -15 -7 -11 -5 3 -7 9 -4 14 3 4 0 11 -5 13 -6 3 -5 4 1 3 7 -1 13 -10
15 -19z m39 3 c-3 -5 -12 -10 -18 -10 -7 0 -6 4 3 10 19 12 23 12 15 0z m-125
-14 c-7 -7 -13 -7 -20 0 -6 6 -3 10 10 10 13 0 16 -4 10 -10z m-52 -21 c-3 -3
-9 2 -12 12 -6 14 -5 15 5 6 7 -7 10 -15 7 -18z m-198 11 c0 -2 -7 -7 -16 -10
-8 -3 -12 -2 -9 4 6 10 25 14 25 6z m90 -21 c-7 -8 -9 -18 -7 -22 3 -5 -3 -9
-13 -9 -13 0 -16 4 -10 12 6 6 6 14 2 18 -4 4 0 6 8 4 8 -2 14 3 12 10 -1 8 2
11 8 7 8 -5 8 -11 0 -20z m67 10 c0 -8 -4 -12 -9 -9 -5 3 -6 10 -3 15 9 13 12
11 12 -6z m123 5 c0 -5 -4 -10 -10 -10 -5 0 -10 5 -10 10 0 6 5 10 10 10 6 0
10 -4 10 -10z m64 -16 c3 -8 2 -12 -4 -9 -6 3 -10 10 -10 16 0 14 7 11 14 -7z
m-311 -9 c4 -8 3 -16 -1 -19 -4 -3 -9 4 -9 15 -2 23 3 25 10 4z m82 -4 c3 -5
2 -12 -3 -15 -5 -3 -9 1 -9 9 0 17 3 19 12 6z m85 -1 c0 -5 -5 -10 -11 -10 -5
0 -7 5 -4 10 3 6 8 10 11 10 2 0 4 -4 4 -10z m-55 -29 c-9 -8 -36 -10 -30 -2
2 4 11 8 20 8 8 0 13 -3 10 -6z m39 1 c3 -5 -1 -9 -9 -9 -8 0 -15 4 -15 9 0 4
4 8 9 8 6 0 12 -4 15 -8z m50 -3 c-2 -4 2 -9 10 -12 15 -6 16 -48 1 -46 -15 1
-42 18 -29 19 5 0 16 -6 23 -12 10 -11 12 -9 9 7 -1 11 -14 28 -28 37 -23 16
-23 17 -3 15 12 0 20 -4 17 -8z m86 3 c0 -4 -10 -9 -22 -9 -18 -2 -20 0 -8 7
18 12 30 13 30 2z m-212 -37 c-3 -3 -9 2 -12 12 -6 14 -5 15 5 6 7 -7 10 -15
7 -18z m108 13 c4 -7 3 -8 -4 -4 -7 4 -12 2 -12 -5 0 -7 -3 -10 -6 -6 -6 5 3
27 11 27 2 0 7 -5 11 -12z m-162 -28 c-6 -6 -10 -3 -10 10 0 13 4 16 10 10 7
-7 7 -13 0 -20z m109 17 c3 -8 0 -14 -7 -14 -7 0 -13 6 -13 14 0 7 4 13 8 13
4 0 9 -6 12 -13z m114 -9 c-3 -8 -6 -5 -6 6 -1 11 2 17 5 13 3 -3 4 -12 1 -19z
m-77 -18 c0 -5 -4 -10 -10 -10 -5 0 -10 5 -10 10 0 6 5 10 10 10 6 0 10 -4 10
-10z m-35 -18 c-3 -3 -11 0 -18 7 -9 10 -8 11 6 5 10 -3 15 -9 12 -12z m-91
-8 c3 -8 2 -12 -4 -9 -6 3 -10 10 -10 16 0 14 7 11 14 -7z m156 12 c0 -2 -7
-7 -16 -10 -8 -3 -12 -2 -9 4 6 10 25 14 25 6z m44 -12 c3 -8 2 -12 -4 -9 -6
3 -10 10 -10 16 0 14 7 11 14 -7z m-80 -10 c3 -8 2 -12 -4 -9 -6 3 -10 10 -10
16 0 14 7 11 14 -7z m-27 -40 c-3 -3 -12 -4 -19 -1 -8 3 -5 6 6 6 11 1 17 -2
13 -5z m1008 -463 c-2 -4 15 -19 37 -35 37 -27 40 -27 33 -7 -3 11 -4 21 -1
21 10 0 35 -99 42 -170 10 -100 8 -148 -7 -166 -11 -13 -65 -47 -79 -49 -42
-7 -60 -18 -60 -37 0 -12 -3 -18 -7 -14 -11 10 -11 50 -1 57 5 3 11 16 14 30
3 13 8 35 11 49 3 14 6 49 6 78 1 61 12 68 22 15 7 -37 8 -37 17 -13 13 34 3
137 -18 180 -9 19 -28 50 -42 69 l-25 34 31 -18 c17 -10 29 -21 27 -24z m380
-89 c-3 -3 -11 0 -18 7 -9 10 -8 11 6 5 10 -3 15 -9 12 -12z m-20 -20 c-3 -3
-11 0 -18 7 -9 10 -8 11 6 5 10 -3 15 -9 12 -12z m-155 -34 c0 -19 -16 -5 -17
14 -2 18 0 20 7 8 5 -8 10 -18 10 -22z m-845 -78 c3 -5 1 -10 -4 -10 -6 0 -11
5 -11 10 0 6 2 10 4 10 3 0 8 -4 11 -10z m845 0 c0 -5 -2 -10 -4 -10 -3 0 -8
5 -11 10 -3 6 -1 10 4 10 6 0 11 -4 11 -10z m-783 -25 c0 -8 -4 -12 -9 -9 -5
3 -6 10 -3 15 9 13 12 11 12 -6z m58 -15 c3 -5 1 -10 -4 -10 -6 0 -11 5 -11
10 0 6 2 10 4 10 3 0 8 -4 11 -10z m-159 -25 c-1 -8 -5 -17 -8 -21 -5 -4 -4
16 1 34 3 9 9 -1 7 -13z m44 -9 c0 -2 -7 -7 -16 -10 -8 -3 -12 -2 -9 4 6 10
25 14 25 6z m160 -6 c0 -5 -2 -10 -4 -10 -3 0 -8 5 -11 10 -3 6 -1 10 4 10 6
0 11 -4 11 -10z m-187 -45 c-3 -9 -8 -14 -10 -11 -3 3 -2 9 2 15 9 16 15 13 8
-4z m24 -27 c-3 -7 -5 -2 -5 12 0 14 2 19 5 13 2 -7 2 -19 0 -25z m-32 -8 c4
-6 1 -9 -7 -8 -7 2 -12 -5 -12 -14 1 -10 -4 -14 -13 -11 -11 5 -11 9 3 24 20
22 21 22 29 9z m95 6 c0 -3 -4 -8 -10 -11 -5 -3 -10 -1 -10 4 0 6 5 11 10 11
6 0 10 -2 10 -4z m60 -6 c0 -5 -5 -10 -11 -10 -5 0 -7 5 -4 10 3 6 8 10 11 10
2 0 4 -4 4 -10z m740 -14 c0 -3 -4 -8 -10 -11 -5 -3 -10 -1 -10 4 0 6 5 11 10
11 6 0 10 -2 10 -4z m-805 -26 c3 -5 1 -10 -4 -10 -6 0 -11 5 -11 10 0 6 2 10
4 10 3 0 8 -4 11 -10z m425 -40 c0 -5 -2 -10 -4 -10 -3 0 -8 5 -11 10 -3 6 -1
10 4 10 6 0 11 -4 11 -10z m294 2 c2 -4 -5 -9 -17 -9 -17 -2 -19 0 -7 7 18 12
18 12 24 2z m-174 -16 c0 -3 -4 -8 -10 -11 -5 -3 -10 -1 -10 4 0 6 5 11 10 11
6 0 10 -2 10 -4z"/>
</g>
</svg>
